{
    "asset" : {
        "generator" : "Khronos glTF Blender I/O v3.2.43",
        "version" : "2.0"
    },
    "scene" : 0,
    "scenes" : [
        {
            "name" : "Scene",
            "nodes" : [
                0,
                1,
                2
            ]
        }
    ],
    "nodes" : [
        {
            "mesh" : 0,
            "name" : "Plane",
            "scale" : [
                25.043691635131836,
                25.043691635131836,
                25.043691635131836
            ]
        },
        {
            "mesh" : 1,
            "name" : "Plane.001",
            "scale" : [
                25.04400062561035,
                25.04400062561035,
                25.04400062561035
            ],
            "translation" : [
                0.018015949055552483,
                0.22066143155097961,
                0
            ]
        },
        {
            "mesh" : 2,
            "name" : "NurbsPath",
            "rotation" : [
                -0.2461739331483841,
                0.37676066160202026,
                0.38745221495628357,
                0.8045685887336731
            ],
            "translation" : [
                3.3943986892700195,
                9.42070484161377,
                0.9855310916900635
            ]
        }
    ],
    "materials" : [
        {
            "doubleSided" : true,
            "name" : "Material.001",
            "pbrMetallicRoughness" : {
                "baseColorTexture" : {
                    "index" : 0
                },
                "metallicFactor" : 0,
                "roughnessFactor" : 0.5
            }
        }
    ],
    "meshes" : [
        {
            "name" : "Plane",
            "primitives" : [
                {
                    "attributes" : {
                        "POSITION" : 0,
                        "NORMAL" : 1,
                        "TEXCOORD_0" : 2
                    },
                    "indices" : 3,
                    "material" : 0
                }
            ]
        },
        {
            "name" : "Plane.001",
            "primitives" : [
                {
                    "attributes" : {
                        "POSITION" : 4,
                        "NORMAL" : 5,
                        "TEXCOORD_0" : 6
                    },
                    "indices" : 7
                }
            ]
        },
        {
            "name" : "NurbsPath",
            "primitives" : [
                {
                    "attributes" : {
                        "POSITION" : 8,
                        "NORMAL" : 9,
                        "TEXCOORD_0" : 10
                    },
                    "indices" : 11
                }
            ]
        }
    ],
    "textures" : [
        {
            "sampler" : 0,
            "source" : 0
        }
    ],
    "images" : [
        {
            "bufferView" : 4,
            "mimeType" : "image/png",
            "name" : "Untitled"
        }
    ],
    "accessors" : [
        {
            "bufferView" : 0,
            "componentType" : 5126,
            "count" : 54478,
            "max" : [
                1.0058590173721313,
                0.35783398151397705,
                1
            ],
            "min" : [
                -1,
                -0.0029362111818045378,
                -1.0115662813186646
            ],
            "type" : "VEC3"
        },
        {
            "bufferView" : 1,
            "componentType" : 5126,
            "count" : 54478,
            "type" : "VEC3"
        },
        {
            "bufferView" : 2,
            "componentType" : 5126,
            "count" : 54478,
            "type" : "VEC2"
        },
        {
            "bufferView" : 3,
            "componentType" : 5123,
            "count" : 98304,
            "type" : "SCALAR"
        },
        {
            "bufferView" : 5,
            "componentType" : 5126,
            "count" : 4,
            "max" : [
                1,
                0,
                1
            ],
            "min" : [
                -1,
                0,
                -1
            ],
            "type" : "VEC3"
        },
        {
            "bufferView" : 6,
            "componentType" : 5126,
            "count" : 4,
            "type" : "VEC3"
        },
        {
            "bufferView" : 7,
            "componentType" : 5126,
            "count" : 4,
            "type" : "VEC2"
        },
        {
            "bufferView" : 8,
            "componentType" : 5123,
            "count" : 6,
            "type" : "SCALAR"
        },
        {
            "bufferView" : 9,
            "componentType" : 5126,
            "count" : 168,
            "max" : [
                -0.15631547570228577,
                1.252315878868103,
                5.687664985656738
            ],
            "min" : [
                -12.98431396484375,
                -12.744996070861816,
                -2.383115768432617
            ],
            "type" : "VEC3"
        },
        {
            "bufferView" : 10,
            "componentType" : 5126,
            "count" : 168,
            "type" : "VEC3"
        },
        {
            "bufferView" : 11,
            "componentType" : 5126,
            "count" : 168,
            "type" : "VEC2"
        },
        {
            "bufferView" : 12,
            "componentType" : 5123,
            "count" : 498,
            "type" : "SCALAR"
        }
    ],
    "bufferViews" : [
        {
            "buffer" : 0,
            "byteLength" : 653736,
            "byteOffset" : 0
        },
        {
            "buffer" : 0,
            "byteLength" : 653736,
            "byteOffset" : 653736
        },
        {
            "buffer" : 0,
            "byteLength" : 435824,
            "byteOffset" : 1307472
        },
        {
            "buffer" : 0,
            "byteLength" : 196608,
            "byteOffset" : 1743296
        },
        {
            "buffer" : 0,
            "byteLength" : 318403,
            "byteOffset" : 1939904
        },
        {
            "buffer" : 0,
            "byteLength" : 48,
            "byteOffset" : 2258308
        },
        {
            "buffer" : 0,
            "byteLength" : 48,
            "byteOffset" : 2258356
        },
        {
            "buffer" : 0,
            "byteLength" : 32,
            "byteOffset" : 2258404
        },
        {
            "buffer" : 0,
            "byteLength" : 12,
            "byteOffset" : 2258436
        },
        {
            "buffer" : 0,
            "byteLength" : 2016,
            "byteOffset" : 2258448
        },
        {
            "buffer" : 0,
            "byteLength" : 2016,
            "byteOffset" : 2260464
        },
        {
            "buffer" : 0,
            "byteLength" : 1344,
            "byteOffset" : 2262480
        },
        {
            "buffer" : 0,
            "byteLength" : 996,
            "byteOffset" : 2263824
        }
    ],
    "samplers" : [
        {
            "magFilter" : 9729,
            "minFilter" : 9987
        }
    ],
    "buffers" : [
        {
            "byteLength" : 2264820,
            "uri" : "data:application/octet-stream;base64,"
        }
    ]
}
