{
    "asset" : {
        "generator" : "Khronos glTF Blender I/O v1.8.19",
        "version" : "2.0"
    },
    "scene" : 0,
    "scenes" : [
        {
            "name" : "Scene",
            "nodes" : [
                0,
                1,
                2
            ]
        }
    ],
    "nodes" : [
        {
            "mesh" : 0,
            "name" : "Cube",
            "rotation" : [
                0,
                0.5457414984703064,
                0,
                0.8379536271095276
            ],
            "scale" : [
                3.5040602684020996,
                3.5040602684020996,
                3.5040602684020996
            ],
            "translation" : [
                -9.121716499328613,
                3.5040602684020996,
                0
            ]
        },
        {
            "mesh" : 0,
            "name" : "Cube.002",
            "rotation" : [
                0,
                0.15444141626358032,
                0,
                0.9880019426345825
            ],
            "scale" : [
                3.5040602684020996,
                3.5040602684020996,
                3.5040602684020996
            ],
            "translation" : [
                -0.0031280517578125,
                3.5040602684020996,
                -8.237242698669434
            ]
        },
        {
            "mesh" : 1,
            "name" : "Cube.001",
            "scale" : [
                19.43964195251465,
                0.4016379117965698,
                19.43964195251465
            ],
            "translation" : [
                0,
                -0.3946610689163208,
                0
            ]
        }
    ],
    "meshes" : [
        {
            "name" : "Cube.001",
            "primitives" : [
                {
                    "attributes" : {
                        "POSITION" : 0,
                        "NORMAL" : 1,
                        "TEXCOORD_0" : 2
                    },
                    "indices" : 3
                }
            ]
        },
        {
            "name" : "Cube.003",
            "primitives" : [
                {
                    "attributes" : {
                        "POSITION" : 4,
                        "NORMAL" : 5,
                        "TEXCOORD_0" : 6
                    },
                    "indices" : 7
                }
            ]
        }
    ],
    "accessors" : [
        {
            "bufferView" : 0,
            "componentType" : 5126,
            "count" : 158,
            "max" : [
                1,
                1,
                1
            ],
            "min" : [
                -1,
                -1,
                -1
            ],
            "type" : "VEC3"
        },
        {
            "bufferView" : 1,
            "componentType" : 5126,
            "count" : 158,
            "type" : "VEC3"
        },
        {
            "bufferView" : 2,
            "componentType" : 5126,
            "count" : 158,
            "type" : "VEC2"
        },
        {
            "bufferView" : 3,
            "componentType" : 5123,
            "count" : 276,
            "type" : "SCALAR"
        },
        {
            "bufferView" : 4,
            "componentType" : 5126,
            "count" : 24,
            "max" : [
                1,
                1,
                1
            ],
            "min" : [
                -1,
                -1,
                -1
            ],
            "type" : "VEC3"
        },
        {
            "bufferView" : 5,
            "componentType" : 5126,
            "count" : 24,
            "type" : "VEC3"
        },
        {
            "bufferView" : 6,
            "componentType" : 5126,
            "count" : 24,
            "type" : "VEC2"
        },
        {
            "bufferView" : 7,
            "componentType" : 5123,
            "count" : 36,
            "type" : "SCALAR"
        }
    ],
    "bufferViews" : [
        {
            "buffer" : 0,
            "byteLength" : 1896,
            "byteOffset" : 0
        },
        {
            "buffer" : 0,
            "byteLength" : 1896,
            "byteOffset" : 1896
        },
        {
            "buffer" : 0,
            "byteLength" : 1264,
            "byteOffset" : 3792
        },
        {
            "buffer" : 0,
            "byteLength" : 552,
            "byteOffset" : 5056
        },
        {
            "buffer" : 0,
            "byteLength" : 288,
            "byteOffset" : 5608
        },
        {
            "buffer" : 0,
            "byteLength" : 288,
            "byteOffset" : 5896
        },
        {
            "buffer" : 0,
            "byteLength" : 192,
            "byteOffset" : 6184
        },
        {
            "buffer" : 0,
            "byteLength" : 72,
            "byteOffset" : 6376
        }
    ],
    "buffers" : [
        {
            "byteLength" : 6448,
            "uri" : "data:application/octet-stream;base64,"
        }
    ]
}
