{
    "asset" : {
        "generator" : "Khronos glTF Blender I/O v3.2.43",
        "version" : "2.0"
    },
    "extensionsUsed" : [
        "KHR_materials_transmission"
    ],
    "scene" : 0,
    "scenes" : [
        {
            "name" : "Scene",
            "nodes" : [
                0,
                1
            ]
        }
    ],
    "nodes" : [
        {
            "mesh" : 0,
            "name" : "Cylinder",
            "rotation" : [
                0,
                0,
                -0.7071068286895752,
                0.7071068286895752
            ],
            "scale" : [
                0.9827735424041748,
                2.2181336879730225,
                0.9827735424041748
            ]
        },
        {
            "mesh" : 1,
            "name" : "Cylinder.001",
            "rotation" : [
                0,
                0,
                -0.7071068286895752,
                0.7071068286895752
            ],
            "scale" : [
                1.0809321403503418,
                2.4396791458129883,
                1.0809321403503418
            ]
        }
    ],
    "materials" : [
        {
            "doubleSided" : true,
            "emissiveFactor" : [
                0,
                0.029376786202192307,
                1
            ],
            "name" : "battery_liquid",
            "pbrMetallicRoughness" : {
                "baseColorFactor" : [
                    0,
                    0.17583557963371277,
                    0.8000000715255737,
                    1
                ],
                "metallicFactor" : 0,
                "roughnessFactor" : 0.5
            }
        },
        {
            "doubleSided" : true,
            "extensions" : {
                "KHR_materials_transmission" : {
                    "transmissionFactor" : 1
                }
            },
            "name" : "glass",
            "pbrMetallicRoughness" : {
                "metallicFactor" : 0,
                "roughnessFactor" : 0
            }
        },
        {
            "doubleSided" : true,
            "name" : "lid",
            "pbrMetallicRoughness" : {
                "baseColorFactor" : [
                    0.8000000715255737,
                    0.21268245577812195,
                    0,
                    1
                ],
                "metallicFactor" : 0.9212598204612732,
                "roughnessFactor" : 0.27952754497528076
            }
        }
    ],
    "meshes" : [
        {
            "name" : "Cylinder",
            "primitives" : [
                {
                    "attributes" : {
                        "POSITION" : 0,
                        "NORMAL" : 1,
                        "TEXCOORD_0" : 2
                    },
                    "indices" : 3,
                    "material" : 0
                }
            ]
        },
        {
            "name" : "Cylinder.001",
            "primitives" : [
                {
                    "attributes" : {
                        "POSITION" : 4,
                        "NORMAL" : 5,
                        "TEXCOORD_0" : 6
                    },
                    "indices" : 7,
                    "material" : 1
                },
                {
                    "attributes" : {
                        "POSITION" : 8,
                        "NORMAL" : 9,
                        "TEXCOORD_0" : 10
                    },
                    "indices" : 11,
                    "material" : 2
                }
            ]
        }
    ],
    "accessors" : [
        {
            "bufferView" : 0,
            "componentType" : 5126,
            "count" : 128,
            "max" : [
                1,
                1,
                1
            ],
            "min" : [
                -1,
                -1,
                -1
            ],
            "type" : "VEC3"
        },
        {
            "bufferView" : 1,
            "componentType" : 5126,
            "count" : 128,
            "type" : "VEC3"
        },
        {
            "bufferView" : 2,
            "componentType" : 5126,
            "count" : 128,
            "type" : "VEC2"
        },
        {
            "bufferView" : 3,
            "componentType" : 5123,
            "count" : 192,
            "type" : "SCALAR"
        },
        {
            "bufferView" : 4,
            "componentType" : 5126,
            "count" : 320,
            "max" : [
                1.0000004768371582,
                1.0109044313430786,
                1.0000003576278687
            ],
            "min" : [
                -1.0000004768371582,
                -1.0109044313430786,
                -1.0000003576278687
            ],
            "type" : "VEC3"
        },
        {
            "bufferView" : 5,
            "componentType" : 5126,
            "count" : 320,
            "type" : "VEC3"
        },
        {
            "bufferView" : 6,
            "componentType" : 5126,
            "count" : 320,
            "type" : "VEC2"
        },
        {
            "bufferView" : 7,
            "componentType" : 5123,
            "count" : 564,
            "type" : "SCALAR"
        },
        {
            "bufferView" : 8,
            "componentType" : 5126,
            "count" : 5875,
            "max" : [
                1.085933804512024,
                1.3031256198883057,
                1.085933804512024
            ],
            "min" : [
                -1.0859339237213135,
                -1.1848660707473755,
                -1.085933804512024
            ],
            "type" : "VEC3"
        },
        {
            "bufferView" : 9,
            "componentType" : 5126,
            "count" : 5875,
            "type" : "VEC3"
        },
        {
            "bufferView" : 10,
            "componentType" : 5126,
            "count" : 5875,
            "type" : "VEC2"
        },
        {
            "bufferView" : 11,
            "componentType" : 5123,
            "count" : 9012,
            "type" : "SCALAR"
        }
    ],
    "bufferViews" : [
        {
            "buffer" : 0,
            "byteLength" : 1536,
            "byteOffset" : 0
        },
        {
            "buffer" : 0,
            "byteLength" : 1536,
            "byteOffset" : 1536
        },
        {
            "buffer" : 0,
            "byteLength" : 1024,
            "byteOffset" : 3072
        },
        {
            "buffer" : 0,
            "byteLength" : 384,
            "byteOffset" : 4096
        },
        {
            "buffer" : 0,
            "byteLength" : 3840,
            "byteOffset" : 4480
        },
        {
            "buffer" : 0,
            "byteLength" : 3840,
            "byteOffset" : 8320
        },
        {
            "buffer" : 0,
            "byteLength" : 2560,
            "byteOffset" : 12160
        },
        {
            "buffer" : 0,
            "byteLength" : 1128,
            "byteOffset" : 14720
        },
        {
            "buffer" : 0,
            "byteLength" : 70500,
            "byteOffset" : 15848
        },
        {
            "buffer" : 0,
            "byteLength" : 70500,
            "byteOffset" : 86348
        },
        {
            "buffer" : 0,
            "byteLength" : 47000,
            "byteOffset" : 156848
        },
        {
            "buffer" : 0,
            "byteLength" : 18024,
            "byteOffset" : 203848
        }
    ],
    "buffers" : [
        {
            "byteLength" : 221872,
            "uri" : "data:application/octet-stream;base64,"
        }
    ]
}
